<?xml version="1.0" encoding="UTF-8"?>
<svg version="1.1" xmlns="http://www.w3.org/2000/svg" width="500" height="500">
<path d="M0 0 C3.57120874 0.00895068 7.14238521 0.00036776 10.71359384 -0.00586212 C17.68504404 -0.01528824 24.65638979 -0.0088058 31.62783215 0.00340082 C39.76141997 0.01710566 47.89498366 0.01537564 56.02858009 0.01326749 C70.54600689 0.01008691 85.06338441 0.02169361 99.5807966 0.04133332 C113.64233528 0.06035107 127.70381629 0.0674151 141.76536691 0.06184113 C157.11485338 0.05577454 172.46431458 0.05597518 187.81379896 0.06732696 C189.4522233 0.06853414 191.09064764 0.06974013 192.72907197 0.07094491 C193.53501706 0.07154844 194.34096214 0.07215198 195.1713298 0.07277381 C200.83102328 0.07664129 206.49070731 0.07626396 212.15040147 0.07435906 C219.05054929 0.07223053 225.95064679 0.07751127 232.85078046 0.09197261 C236.36624511 0.09918313 239.88163672 0.10332234 243.39710748 0.09872925 C247.21719113 0.09549192 251.03705676 0.1046284 254.85711801 0.11681855 C255.95450668 0.11303922 257.05189534 0.1092599 258.18253821 0.10536605 C268.22990707 0.16184477 277.95919406 1.6661976 287.59715402 4.50251496 C288.30170724 4.70844269 289.00626047 4.91437043 289.73216379 5.1265384 C297.72746162 7.60357922 305.00399051 11.41424386 312.34715402 15.37751496 C313.00715402 15.70751496 313.66715402 16.03751496 314.34715402 16.37751496 C314.34715402 17.03751496 314.34715402 17.69751496 314.34715402 18.37751496 C314.96590402 18.52188996 315.58465402 18.66626496 316.22215402 18.81501496 C318.34715402 19.37751496 318.34715402 19.37751496 320.34715402 20.37751496 C320.34715402 21.03751496 320.34715402 21.69751496 320.34715402 22.37751496 C321.66715402 22.70751496 322.98715402 23.03751496 324.34715402 23.37751496 C324.34715402 24.03751496 324.34715402 24.69751496 324.34715402 25.37751496 C325.23080637 25.77003449 325.23080637 25.77003449 326.13231027 26.17048371 C328.46500836 27.44174246 329.9506977 28.77982027 331.78465402 30.69001496 C332.34023996 31.26364777 332.8958259 31.83728058 333.46824777 32.42829621 C334.08828683 33.0715384 334.7083259 33.71478058 335.34715402 34.37751496 C336.14637277 35.1496634 336.94559152 35.92181183 337.76902902 36.71735871 C356.52348718 56.06854962 364.51742248 82.24135416 364.48086679 108.61636078 C364.48313235 109.82431532 364.4853979 111.03226985 364.48773211 112.27682906 C364.49294542 115.60821137 364.49372076 118.93953945 364.49253774 122.27092195 C364.49233282 125.87225782 364.49786107 129.47358577 364.50259531 133.07491791 C364.51088257 140.12229268 364.51364927 147.16965908 364.51420768 154.21703831 C364.51468372 159.94803405 364.51674281 165.67902703 364.51990831 171.4100219 C364.52870928 187.67597041 364.5333285 203.94191234 364.53257784 220.20786325 C364.5325179 221.52172732 364.5325179 221.52172732 364.53245676 222.8621341 C364.53241587 223.73911883 364.53237499 224.61610357 364.53233287 225.51966359 C364.53192646 239.7308877 364.54149627 253.94208531 364.55559512 268.15330175 C364.56997385 282.76244683 364.5768645 297.37157898 364.57600135 311.98073131 C364.57566992 320.17578176 364.57839338 328.37080441 364.5891794 336.56584847 C364.59830406 343.54303645 364.60044349 350.52018403 364.59366997 357.49737541 C364.59041481 361.05329576 364.59031162 364.60913869 364.59902322 368.16505158 C364.60839244 372.02930921 364.60208612 375.89345501 364.59439218 379.75771821 C364.59953574 380.86834573 364.60467931 381.97897325 364.60997874 383.12325615 C364.50200703 407.76198172 355.61357541 432.6957038 339.34715402 451.37751496 C338.68715402 451.37751496 338.02715402 451.37751496 337.34715402 451.37751496 C337.34715402 452.03751496 337.34715402 452.69751496 337.34715402 453.37751496 C336.68715402 453.37751496 336.02715402 453.37751496 335.34715402 453.37751496 C335.34715402 454.03751496 335.34715402 454.69751496 335.34715402 455.37751496 C334.68715402 455.37751496 334.02715402 455.37751496 333.34715402 455.37751496 C333.34715402 456.03751496 333.34715402 456.69751496 333.34715402 457.37751496 C332.68715402 457.37751496 332.02715402 457.37751496 331.34715402 457.37751496 C331.34715402 458.03751496 331.34715402 458.69751496 331.34715402 459.37751496 C330.68715402 459.37751496 330.02715402 459.37751496 329.34715402 459.37751496 C329.34715402 460.03751496 329.34715402 460.69751496 329.34715402 461.37751496 C328.68715402 461.37751496 328.02715402 461.37751496 327.34715402 461.37751496 C327.34715402 462.03751496 327.34715402 462.69751496 327.34715402 463.37751496 C306.12903123 479.99378515 283.06332452 488.5485873 256.1083082 488.51122773 C254.90035366 488.51349328 253.69239913 488.51575884 252.44783992 488.51809305 C249.11645761 488.52330635 245.78512953 488.5240817 242.45374703 488.52289867 C238.85241116 488.52269376 235.25108321 488.528222 231.64975107 488.53295624 C224.6023763 488.5412435 217.5550099 488.5440102 210.50763067 488.54456862 C204.77663493 488.54504465 199.04564194 488.54710374 193.31464708 488.55026925 C177.04869857 488.55907022 160.78275664 488.56368944 144.51680573 488.56293877 C143.64089635 488.56289882 142.76498697 488.56285886 141.86253488 488.56281769 C140.98555015 488.56277681 140.10856541 488.56273593 139.20500538 488.56269381 C124.99378128 488.5622874 110.78258367 488.57185721 96.57136723 488.58595606 C81.96222215 488.60033479 67.35309 488.60722543 52.74393767 488.60636228 C44.54888722 488.60603085 36.35386457 488.60875431 28.15882051 488.61954033 C21.18163253 488.628665 14.20448495 488.63080443 7.22729357 488.62403091 C3.67137322 488.62077574 0.11553029 488.62067256 -3.4403826 488.62938416 C-7.30464023 488.63875337 -11.16878603 488.63244706 -15.03304923 488.62475312 C-16.14367675 488.62989668 -17.25430427 488.63504024 -18.39858717 488.64033967 C-44.03603299 488.52799138 -69.35332643 478.17904705 -88.65284598 461.37751496 C-88.65284598 460.71751496 -88.65284598 460.05751496 -88.65284598 459.37751496 C-89.31284598 459.37751496 -89.97284598 459.37751496 -90.65284598 459.37751496 C-90.65284598 458.71751496 -90.65284598 458.05751496 -90.65284598 457.37751496 C-91.31284598 457.37751496 -91.97284598 457.37751496 -92.65284598 457.37751496 C-94.16065848 455.91657746 -94.16065848 455.91657746 -95.77784598 454.00251496 C-96.3166741 453.37603058 -96.85550223 452.74954621 -97.41065848 452.10407746 C-98.65284598 450.37751496 -98.65284598 450.37751496 -98.65284598 448.37751496 C-99.31284598 448.37751496 -99.97284598 448.37751496 -100.65284598 448.37751496 C-101.14784598 446.39751496 -101.14784598 446.39751496 -101.65284598 444.37751496 C-102.31284598 444.37751496 -102.97284598 444.37751496 -103.65284598 444.37751496 C-105.65284598 441.37751496 -105.65284598 441.37751496 -105.65284598 438.37751496 C-106.31284598 438.37751496 -106.97284598 438.37751496 -107.65284598 438.37751496 C-112.32803874 430.43918005 -116.23668461 422.55314483 -119.02784598 413.75251496 C-119.38483572 412.64589509 -119.38483572 412.64589509 -119.74903738 411.51691926 C-122.99577282 400.77366598 -123.95222583 389.90884943 -123.90681326 378.7335788 C-123.90993325 377.53037367 -123.91305323 376.32716855 -123.91626775 375.08750266 C-123.92280849 371.7879275 -123.92053112 368.48850258 -123.91429532 365.18893147 C-123.90973542 361.61492893 -123.91677194 358.04094538 -123.92225516 354.46694672 C-123.93111307 347.48160323 -123.92924337 340.4963029 -123.92342988 333.51095777 C-123.91889951 327.83058929 -123.91830641 322.15023283 -123.92047751 316.46986306 C-123.92078398 315.6591329 -123.92109044 314.84840274 -123.92140619 314.01310499 C-123.92204569 312.36575571 -123.92269412 310.71840643 -123.92335138 309.07105715 C-123.92904402 293.65172225 -123.92251335 278.23241119 -123.91175064 262.8130802 C-123.90281441 249.60171775 -123.90436984 236.39039045 -123.91358817 223.17902863 C-123.92430673 207.81053033 -123.92849658 192.44205288 -123.92236364 177.07355136 C-123.92172659 175.43281794 -123.92109784 173.79208452 -123.92047751 172.15135109 C-123.92016896 171.34422606 -123.91986041 170.53710103 -123.91954251 169.70551766 C-123.91782045 164.0358495 -123.92072005 158.36619465 -123.92543662 152.69652855 C-123.93106303 145.7816493 -123.92949205 138.86681541 -123.91887513 131.9519413 C-123.91364229 128.42840032 -123.91152064 124.90493482 -123.91817343 121.38139451 C-123.9236615 117.55234423 -123.91675507 113.72350445 -123.90681326 109.89446747 C-123.91127471 108.79435033 -123.91573615 107.69423318 -123.92033279 106.56077915 C-123.8699072 96.5056821 -122.36629806 86.77272884 -119.52784598 77.12751496 C-119.32191824 76.42296174 -119.11599051 75.71840851 -118.90382254 74.99250519 C-116.42678172 66.99720736 -112.61611708 59.72067847 -108.65284598 52.37751496 C-108.32284598 51.71751496 -107.99284598 51.05751496 -107.65284598 50.37751496 C-106.99284598 50.37751496 -106.33284598 50.37751496 -105.65284598 50.37751496 C-105.39503348 49.64919465 -105.13722098 48.92087433 -104.87159598 48.17048371 C-100.60817547 38.40014504 -90.47020114 28.23691123 -81.65284598 22.37751496 C-80.99284598 22.37751496 -80.33284598 22.37751496 -79.65284598 22.37751496 C-79.65284598 21.71751496 -79.65284598 21.05751496 -79.65284598 20.37751496 C-76.65284598 18.37751496 -76.65284598 18.37751496 -73.65284598 18.37751496 C-73.65284598 17.71751496 -73.65284598 17.05751496 -73.65284598 16.37751496 C-49.04562031 3.49866828 -27.57273405 -0.09487935 0 0 Z " fill="#02101C" transform="translate(129.65284597873688,5.622485041618347)"/>
<path d="M0 0 C20.87256043 -0.09387985 41.74508551 -0.16419138 62.61781502 -0.20724869 C72.31168851 -0.22778171 82.00543003 -0.25572276 91.69921875 -0.30175781 C100.15870731 -0.34191176 108.61810019 -0.36749989 117.07768142 -0.37635398 C121.54757608 -0.38152095 126.01719726 -0.39346615 130.48700333 -0.42292023 C175.99074773 -0.71084556 216.02275047 8.22290739 249.5625 41.125 C259.71815498 51.36793971 268.3213928 63.2219602 275 76 C275.42410156 76.80695313 275.84820312 77.61390625 276.28515625 78.4453125 C296.13781164 119.17198177 297.00530582 168.16933069 284 211 C283.47019531 212.74603516 283.47019531 212.74603516 282.9296875 214.52734375 C272.1940959 248.04436792 250.36600365 277.92608178 220 296 C218.91138672 296.65935547 218.91138672 296.65935547 217.80078125 297.33203125 C208.51726421 302.73740623 198.61562688 307.1697195 188 309 C188.52787109 308.35998047 188.52787109 308.35998047 189.06640625 307.70703125 C200.3969114 293.35900254 205.28072181 279.11048874 204 261 C202.20502362 247.61044649 195.38001808 235.09274367 184.9375 226.5625 C178.24419851 221.5286027 171.03296138 217.19814861 163.3125 213.9375 C153.67220192 209.80594368 146.44432182 203.77757209 141.0625 194.75 C139.40209866 188.88975997 138.38913242 182.53759154 140.99609375 176.8125 C146.13584086 170.05657179 154.03034709 168.38061593 161.95947266 166.7109375 C180.39403231 162.78709887 195.43500097 154.05015198 206 138 C212.98587554 125.77947658 216.37961134 114.00967288 216.125 99.9375 C216.11597656 98.97650391 216.10695313 98.01550781 216.09765625 97.02539062 C216.07435208 94.68332195 216.04164058 92.34180208 216 90 C213.61926519 89.34237278 213.61926519 89.34237278 211 89 C208.45633073 90.68392126 208.45633073 90.68392126 206 93 C197.8164991 99.13762568 188.73716138 101.07117046 178.6328125 101.17578125 C154.66039813 101.26023383 154.66039813 101.26023383 132.69921875 109.94921875 C131 111 131 111 128 112 C128 112.66 128 113.32 128 114 C126.84161379 115.12431603 125.68132767 116.24673843 124.51171875 117.359375 C121.55849486 120.56442419 119.3275064 124.32877857 117 128 C115.02165829 125.61234622 113.19754825 123.37534167 111.75 120.625 C105.29580779 110.94371168 93.94406376 105.87184652 83 103 C78.71891685 102.17609343 74.63002595 101.85565458 70.2734375 101.7890625 C68.99339844 101.76070313 67.71335937 101.73234375 66.39453125 101.703125 C63.73822488 101.64879587 61.08247357 101.60710151 58.42578125 101.5703125 C48.38998792 101.32921236 38.12240382 100.6695258 29.5 95 C28.7265625 94.505 27.953125 94.01 27.15625 93.5 C25 92 25 92 23.03125 90.3125 C20.51261668 88.68507539 18.94210392 88.89829764 16 89 C16.13659184 112.57146709 18.68660614 131.90889617 35.62890625 149.875 C46.01544943 159.18353293 57.85681047 163.8185697 71.29296875 167.046875 C72.00598145 167.21856201 72.71899414 167.39024902 73.45361328 167.56713867 C75.4449356 168.03488502 77.44304608 168.47345518 79.44140625 168.91015625 C85.50320745 170.76662445 89.35854299 173.87498643 93 179 C94.94252048 182.88504096 94.52645045 187.17645176 93.3515625 191.24609375 C89.86061618 199.85411096 83.65224933 207.31847455 75 211 C69.71624101 212.5533674 64.36906365 213.78081272 59 215 C37.94090388 219.81744029 19.66624586 231.53961863 8 250 C4.34616093 256.40202573 1.2040355 262.95134541 -1 270 C-1.33 270 -1.66 270 -2 270 C-2 181.56 -2 93.12 -2 2 C-1.34 2 -0.68 2 0 2 C0 1.34 0 0.68 0 0 Z " fill="#01D5D8" transform="translate(117,99)"/>
<path d="M0 0 C0.87931183 -0.0033284 1.75862366 -0.0066568 2.6645813 -0.01008606 C4.52914912 -0.01515962 6.39372606 -0.01749425 8.25830078 -0.01733398 C11.11375915 -0.01951669 13.96882901 -0.03765729 16.82421875 -0.05664062 C18.63281117 -0.05957519 20.44140544 -0.06155956 22.25 -0.0625 C23.10633026 -0.06968552 23.96266052 -0.07687103 24.84494019 -0.08427429 C26.04100388 -0.07965935 26.04100388 -0.07965935 27.26123047 -0.07495117 C27.96214813 -0.07637619 28.6630658 -0.07780121 29.38522339 -0.07926941 C31.2578125 0.16796875 31.2578125 0.16796875 34.2578125 2.16796875 C34.56173063 5.12381146 34.67772341 7.86637248 34.65625 10.82421875 C34.65912018 11.68229126 34.66199036 12.54036377 34.66494751 13.42443848 C34.66699066 15.2401597 34.66144328 17.05590281 34.64892578 18.87158203 C34.63287528 21.65707431 34.64876556 24.44111556 34.66796875 27.2265625 C34.66598636 28.98828447 34.66214278 30.75000552 34.65625 32.51171875 C34.66535904 33.76643982 34.66535904 33.76643982 34.6746521 35.04650879 C34.64599609 37.39257813 34.64599609 37.39257813 34.2578125 41.16796875 C30.34925679 43.77367256 27.03717512 43.45567042 22.50390625 43.43359375 C21.64724869 43.4355072 20.79059113 43.43742065 19.90797424 43.43939209 C18.09823309 43.44075248 16.28848214 43.43706622 14.47875977 43.42871094 C11.70241501 43.41799616 8.9267154 43.42861779 6.15039062 43.44140625 C4.39322773 43.44008489 2.63606524 43.43752297 0.87890625 43.43359375 C0.04556259 43.43764221 -0.78778107 43.44169067 -1.64637756 43.44586182 C-7.51226019 43.39789606 -7.51226019 43.39789606 -9.7421875 41.16796875 C-9.92994917 38.16661262 -9.99768932 35.25909729 -9.97265625 32.2578125 C-9.97219803 31.37517227 -9.97173981 30.49253204 -9.9712677 29.58314514 C-9.96824437 27.71614234 -9.96035567 25.84914208 -9.94799805 23.98217773 C-9.92973976 21.11367936 -9.92748834 18.24550354 -9.92773438 15.37695312 C-9.92281938 13.56640344 -9.91699114 11.75585596 -9.91015625 9.9453125 C-9.90904343 9.08179672 -9.9079306 8.21828094 -9.90678406 7.32859802 C-9.83886515 -1.12738579 -7.67676054 0.00992921 0 0 Z " fill="#066DE9" transform="translate(213.7421875,316.83203125)"/>
<path d="M0 0 C0.85665756 -0.00191345 1.71331512 -0.0038269 2.59593201 -0.00579834 C4.40567316 -0.00715873 6.21542411 -0.00347247 8.02514648 0.00488281 C10.80149124 0.01559759 13.57719085 0.00497596 16.35351562 -0.0078125 C18.11067852 -0.00649114 19.86784101 -0.00392922 21.625 0 C22.45834366 -0.00404846 23.29168732 -0.00809692 24.15028381 -0.01226807 C30.01616644 0.03569769 30.01616644 0.03569769 32.24609375 2.265625 C32.45829258 5.09928108 32.55005944 7.83270521 32.546875 10.66796875 C32.55116013 11.50147354 32.55544525 12.33497833 32.55986023 13.19374084 C32.5656081 14.9581715 32.56610043 16.72262585 32.56176758 18.48706055 C32.5586102 21.18905033 32.5820512 23.88994278 32.60742188 26.59179688 C32.60969506 28.30468612 32.61039828 30.01757831 32.609375 31.73046875 C32.61858475 32.5399144 32.62779449 33.34936005 32.63728333 34.18333435 C32.59085514 39.80429811 32.59085514 39.80429811 30.96588135 41.97868347 C27.92808485 44.25190981 24.1435011 43.69073493 20.4921875 43.6640625 C19.63552994 43.66693268 18.77887238 43.66980286 17.89625549 43.67276001 C16.0865106 43.6748006 14.27674366 43.66927107 12.46704102 43.65673828 C9.69041922 43.64066451 6.91524872 43.65659682 4.13867188 43.67578125 C2.38150719 43.6737992 0.62434342 43.66995632 -1.1328125 43.6640625 C-2.38282799 43.67317154 -2.38282799 43.67317154 -3.65809631 43.6824646 C-5.99438477 43.65380859 -5.99438477 43.65380859 -9.75390625 43.265625 C-12.32398945 39.41050021 -12.05972185 36.20160844 -12.0546875 31.73046875 C-12.05897263 30.89600723 -12.06325775 30.06154572 -12.06767273 29.20179749 C-12.07341258 27.43914701 -12.07391882 25.67647284 -12.06958008 23.91381836 C-12.06641397 21.20971624 -12.08990389 18.50670168 -12.11523438 15.80273438 C-12.11750671 14.09114722 -12.11821117 12.37955711 -12.1171875 10.66796875 C-12.12639725 9.85649887 -12.13560699 9.04502899 -12.14509583 8.20896912 C-12.1262207 5.93334961 -12.1262207 5.93334961 -11.75390625 2.265625 C-7.84535054 -0.34007881 -4.53326887 -0.02207667 0 0 Z " fill="#076BE6" transform="translate(266.75390625,365.734375)"/>
<path d="M0 0 C1.28753174 0.00607269 1.28753174 0.00607269 2.60107422 0.01226807 C3.92147705 0.00939789 3.92147705 0.00939789 5.26855469 0.00646973 C7.13135056 0.00510755 8.99415591 0.00880625 10.85693359 0.01715088 C13.71457158 0.02785 16.57158088 0.01725675 19.42919922 0.00445557 C21.23649228 0.00577716 23.04378495 0.00833954 24.85107422 0.01226807 C25.70942871 0.0082196 26.5677832 0.00417114 27.45214844 0 C33.49615677 0.04797562 33.49615677 0.04797562 35.72607422 2.27789307 C35.93827305 5.11154914 36.03003991 7.84497328 36.02685547 10.68023682 C36.03114059 11.51374161 36.03542572 12.3472464 36.0398407 13.20600891 C36.04558857 14.97043956 36.0460809 16.73489392 36.04174805 18.49932861 C36.03859067 21.2013184 36.06203167 23.90221085 36.08740234 26.60406494 C36.08967553 28.31695418 36.09037874 30.02984637 36.08935547 31.74273682 C36.09856522 32.55218246 36.10777496 33.36162811 36.11726379 34.19560242 C36.0708356 39.81656617 36.0708356 39.81656617 34.44586182 41.99095154 C31.40806532 44.26417788 27.62348156 43.70300299 23.97216797 43.67633057 C23.11551041 43.67920074 22.25885284 43.68207092 21.37623596 43.68502808 C19.56649107 43.68706867 17.75672413 43.68153914 15.94702148 43.66900635 C13.17039968 43.65293258 10.39522919 43.66886489 7.61865234 43.68804932 C5.86148766 43.68606727 4.10432388 43.68222439 2.34716797 43.67633057 C1.09715248 43.68543961 1.09715248 43.68543961 -0.17811584 43.69473267 C-2.5144043 43.66607666 -2.5144043 43.66607666 -6.27392578 43.27789307 C-8.84721025 39.41796637 -8.56193043 36.21730282 -8.53955078 31.74273682 C-8.54146423 30.9082753 -8.54337769 30.07381378 -8.54534912 29.21406555 C-8.54670938 27.45140277 -8.54302401 25.68872992 -8.53466797 23.92608643 C-8.52395261 21.22216414 -8.53457539 18.51890422 -8.54736328 15.81500244 C-8.54604192 14.10341243 -8.54348002 12.39182283 -8.53955078 10.68023682 C-8.54359924 9.86876694 -8.54764771 9.05729706 -8.55181885 8.22123718 C-8.4910806 0.98625434 -7.16874509 0.05690346 0 0 Z " fill="#066BE7" transform="translate(212.27392578125,365.72210693359375)"/>
<path d="M0 0 C0.8816835 -0.0033284 1.763367 -0.0066568 2.67176819 -0.01008606 C4.54053219 -0.01515908 6.40930529 -0.01749427 8.27807617 -0.01733398 C11.14451969 -0.01951933 14.01057785 -0.0376678 16.87695312 -0.05664062 C18.68880076 -0.05957464 20.50065023 -0.06155938 22.3125 -0.0625 C23.60473732 -0.07327827 23.60473732 -0.07327827 24.92308044 -0.08427429 C30.99383465 -0.06085285 30.99383465 -0.06085285 33.22265625 2.16796875 C33.42263949 5.0854601 33.50240512 7.90598804 33.48828125 10.82421875 C33.49115143 12.11132751 33.49115143 12.11132751 33.49407959 13.42443848 C33.49544169 15.24015597 33.49174353 17.0558832 33.48339844 18.87158203 C33.47269916 21.65679725 33.48329278 24.44136743 33.49609375 27.2265625 C33.49477216 28.98828268 33.49220978 30.75000246 33.48828125 32.51171875 C33.49232971 33.34819946 33.49637817 34.18468018 33.50054932 35.04650879 C33.45257459 40.93805041 33.45257459 40.93805041 31.22265625 43.16796875 C28.22130012 43.35573042 25.31378479 43.42347057 22.3125 43.3984375 C21.42985977 43.39797928 20.54721954 43.39752106 19.63783264 43.39704895 C17.77082984 43.39402562 15.90382958 43.38613692 14.03686523 43.3737793 C11.16836686 43.35552101 8.30019104 43.35326959 5.43164062 43.35351562 C3.62109094 43.34860063 1.81054346 43.34277239 0 43.3359375 C-0.86351578 43.33482468 -1.72703156 43.33371185 -2.61671448 43.33256531 C-8.6612976 43.2840149 -8.6612976 43.2840149 -9.77734375 42.16796875 C-9.87848075 39.14988812 -9.91703284 36.15516362 -9.91015625 33.13671875 C-9.91111298 32.23046753 -9.9120697 31.32421631 -9.91305542 30.39050293 C-9.91373728 28.47045828 -9.91188257 26.55041134 -9.90771484 24.63037109 C-9.90236667 21.68061171 -9.90765963 18.73100461 -9.9140625 15.78125 C-9.91340172 13.92057258 -9.91212056 12.05989525 -9.91015625 10.19921875 C-9.91218048 9.31069214 -9.91420471 8.42216553 -9.91629028 7.50671387 C-9.88312834 -1.0942022 -7.82768833 0.01008764 0 0 Z " fill="#066CE8" transform="translate(162.77734375,365.83203125)"/>
<path d="M0 0 C20.87256043 -0.09387985 41.74508551 -0.16419138 62.61781502 -0.20724869 C72.31168851 -0.22778171 82.00543003 -0.25572276 91.69921875 -0.30175781 C100.15870731 -0.34191176 108.61810019 -0.36749989 117.07768142 -0.37635398 C121.54757608 -0.38152095 126.01719726 -0.39346615 130.48700333 -0.42292023 C149.05558966 -0.54071913 166.841817 -0.48955487 185 4 C185 4.33 185 4.66 185 5 C182.9998173 4.85669423 180.99986175 4.71021706 179 4.5625 C177.88625 4.48128906 176.7725 4.40007812 175.625 4.31640625 C173.33077111 4.11615567 171.04056008 3.84963265 168.76538086 3.49305725 C161.92725695 2.63484498 155.00981542 2.82081004 148.12890625 2.79467773 C146.49592343 2.78495105 144.86294306 2.77480498 143.22996521 2.76427555 C138.87331671 2.73733375 134.51665823 2.71610064 130.15997314 2.69608307 C126.06561203 2.67639633 121.97128873 2.6515171 117.87695312 2.6270752 C105.91799733 2.55868895 93.95899526 2.49859685 82 2.4375 C55.27 2.293125 28.54 2.14875 1 2 C0.67 86.48 0.34 170.96 0 258 C0.66 258 1.32 258 2 258 C2.66 256.35 3.32 254.7 4 253 C4.66 253.33 5.32 253.66 6 254 C5.66226563 254.65226563 5.32453125 255.30453125 4.9765625 255.9765625 C2.6285312 260.57761806 0.4422387 265.01772085 -1 270 C-1.33 270 -1.66 270 -2 270 C-2 181.56 -2 93.12 -2 2 C-1.34 2 -0.68 2 0 2 C0 1.34 0 0.68 0 0 Z " fill="#19B0B5" transform="translate(117,99)"/>
<path d="M0 0 C0.33 0 0.66 0 1 0 C1.02505615 1.17618896 1.0501123 2.35237793 1.07592773 3.56420898 C1.16982806 7.91214622 1.27009048 12.25991716 1.37231445 16.60766602 C1.41572933 18.49239218 1.45739943 20.37715936 1.49731445 22.26196289 C1.55485893 24.96513249 1.61859804 27.66809436 1.68359375 30.37109375 C1.70030624 31.21900986 1.71701874 32.06692596 1.73423767 32.9405365 C1.46409195 36.78292076 1.46409195 36.78292076 3 40 C6.02977804 40.08871273 9.03667022 40.1151935 12.06640625 40.09765625 C12.97502914 40.0962413 13.88365204 40.09482635 14.81980896 40.09336853 C17.73407221 40.08775193 20.64825981 40.07519665 23.5625 40.0625 C25.53320202 40.05748714 27.50390524 40.05292386 29.47460938 40.04882812 C34.31643559 40.03777711 39.15820495 40.02050138 44 40 C43.505 40.99 43.505 40.99 43 42 C31.45 42.66 19.9 43.32 8 44 C16.94444186 44.28846346 16.94444186 44.28846346 25.88916016 44.56811523 C27.01112793 44.60622314 28.1330957 44.64433105 29.2890625 44.68359375 C30.43068848 44.72025146 31.57231445 44.75690918 32.74853516 44.79467773 C35.8933928 44.99326801 38.9041491 45.4238847 42 46 C42 46.33 42 46.66 42 47 C40.82381104 47.02505615 39.64762207 47.0501123 38.43579102 47.07592773 C34.08785378 47.16982806 29.74008284 47.27009048 25.39233398 47.37231445 C23.50760782 47.41572933 21.62284064 47.45739943 19.73803711 47.49731445 C17.03486751 47.55485893 14.33190564 47.61859804 11.62890625 47.68359375 C10.78099014 47.70030624 9.93307404 47.71701874 9.0594635 47.73423767 C5.21707924 47.46409195 5.21707924 47.46409195 2 49 C1.91131701 51.95705321 1.88479704 54.89065056 1.90234375 57.84765625 C1.90446617 59.17729652 1.90446617 59.17729652 1.90663147 60.53379822 C1.91224785 63.37673254 1.92480309 66.21958931 1.9375 69.0625 C1.94251289 70.98502491 1.94707616 72.90755104 1.95117188 74.83007812 C1.96222259 79.55341549 1.97949817 84.27669458 2 89 C1.01 88.67 0.02 88.34 -1 88 C-1.70381157 86.01276732 -2.3711811 84.01222047 -3 82 C-3.66 81.67 -4.32 81.34 -5 81 C-4.814375 81.598125 -4.62875 82.19625 -4.4375 82.8125 C-4 85 -4 85 -5 88 C-5.66 88 -6.32 88 -7 88 C-7.02505615 86.82904785 -7.0501123 85.6580957 -7.07592773 84.45166016 C-7.16993703 80.11674622 -7.27017341 75.78199496 -7.37231445 71.44726562 C-7.41568789 69.56937458 -7.45736118 67.69144348 -7.49731445 65.81347656 C-7.55495876 63.1177156 -7.61866981 60.42215673 -7.68359375 57.7265625 C-7.70030624 56.88380768 -7.71701874 56.04105286 -7.73423767 55.17276001 C-7.73236144 50.9513339 -7.73236144 50.9513339 -9 47 C-8.1028125 47.2784375 -8.1028125 47.2784375 -7.1875 47.5625 C-4.83591238 48.22093687 -4.83591238 48.22093687 -2 47 C-0.33637583 46.65179959 1.32995171 46.31595508 3 46 C2.23790232 42.90041465 2.23790232 42.90041465 -0.125 41.0625 C-0.74375 40.381875 -1.3625 39.70125 -2 39 C-1.70051428 37.65865844 -1.35615368 36.32741985 -1 35 C-0.84947591 32.31168621 -0.74394884 29.64337245 -0.68359375 26.953125 C-0.66281265 26.18192322 -0.64203156 25.41072144 -0.62062073 24.6161499 C-0.55541428 22.16085428 -0.49637516 19.70545479 -0.4375 17.25 C-0.39428726 15.58202065 -0.3506721 13.91405168 -0.30664062 12.24609375 C-0.19976264 8.16416804 -0.09841434 4.08213818 0 0 Z " fill="#001121" transform="translate(203,319)"/>
<path d="M0 0 C1.63424294 2.13092648 1.65277706 3.15843461 1.56277466 5.81759644 C1.54252731 6.63822067 1.52227997 7.45884491 1.50141907 8.30433655 C1.44538261 9.62634819 1.44538261 9.62634819 1.38821411 10.97506714 C1.34855278 12.33375664 1.34855278 12.33375664 1.30809021 13.71989441 C1.2202881 16.61421333 1.11115283 19.50728304 1.00149536 22.40084839 C0.93824063 24.3623921 0.87637444 26.32398112 0.81594849 28.28561401 C0.66474083 33.09553278 0.49439658 37.90443963 0.31399536 42.71334839 C-2.59355786 44.36954116 -4.65783887 44.96050601 -7.99557495 44.94039917 C-9.25642914 44.94017258 -9.25642914 44.94017258 -10.54275513 44.93994141 C-11.44080872 44.92961884 -12.3388623 44.91929626 -13.26412964 44.90866089 C-14.19070374 44.90583099 -15.11727783 44.9030011 -16.07192993 44.90008545 C-19.02675373 44.8889045 -21.98127269 44.86380365 -24.93600464 44.83834839 C-26.94120859 44.8283159 -28.9464173 44.81919052 -30.95162964 44.81100464 C-35.86320515 44.78897196 -40.77455323 44.75445634 -45.68600464 44.71334839 C-47.45836922 39.34339464 -48.01586574 34.57217631 -48.10006714 28.93600464 C-48.11943329 28.12465561 -48.13879944 27.31330658 -48.15875244 26.47737122 C-48.2180743 23.91030067 -48.264742 21.3431841 -48.31100464 18.77584839 C-48.34922816 17.02517883 -48.38828238 15.2745272 -48.42819214 13.52389526 C-48.5237362 9.25386023 -48.60794001 4.98373729 -48.68600464 0.71334839 C-43.40390327 -0.74137631 -38.65896168 -1.56992284 -33.15084839 -1.73587036 C-32.46849625 -1.75760818 -31.7861441 -1.77934601 -31.08311462 -1.80174255 C-29.65391038 -1.8452779 -28.22457058 -1.88455954 -26.7951355 -1.91970825 C-24.62480787 -1.97411894 -22.45541107 -2.04441134 -20.28561401 -2.11672974 C-3.41608428 -2.60693847 -3.41608428 -2.60693847 0 0 Z M-45.68600464 2.71334839 C-45.97769805 5.58686321 -46.08190669 8.24147683 -46.04928589 11.11569214 C-46.04978439 11.94919693 -46.0502829 12.78270172 -46.05079651 13.64146423 C-46.04845398 15.40592835 -46.03871488 17.17039568 -46.02218628 18.93478394 C-45.99862829 21.63666681 -46.00161944 24.33756105 -46.00827026 27.03952026 C-46.00269243 28.75241678 -45.99558188 30.46530913 -45.98678589 32.17819214 C-45.9876973 32.98763779 -45.9886087 33.79708344 -45.98954773 34.63105774 C-45.94060476 38.5030852 -45.882411 40.41873885 -43.68600464 43.71334839 C-40.74159974 44.01736838 -38.0113434 44.13325696 -35.06491089 44.11178589 C-34.20921005 44.11465607 -33.35350922 44.11752625 -32.47187805 44.1204834 C-30.66035298 44.12252676 -28.84880598 44.1169779 -27.037323 44.10446167 C-24.2628135 44.08843106 -21.48976511 44.10429056 -18.71530151 44.12350464 C-16.95683475 44.12152187 -15.1983689 44.11767749 -13.43991089 44.11178589 C-12.60859146 44.11785858 -11.77727203 44.12393127 -10.92076111 44.13018799 C-6.67806525 44.19175164 -6.67806525 44.19175164 -2.96621704 42.42640686 C-0.7309667 39.43540745 -1.28187057 35.76875035 -1.32272339 32.17819214 C-1.32222488 31.34373062 -1.32172638 30.5092691 -1.32121277 29.64952087 C-1.32355204 27.88683692 -1.33327194 26.12414955 -1.349823 24.36154175 C-1.37344614 21.65754485 -1.3703793 18.95453182 -1.36373901 16.25045776 C-1.36931476 14.53886332 -1.37642399 12.82727304 -1.38522339 11.11569214 C-1.38431198 10.30422226 -1.38340057 9.49275238 -1.38246155 8.6566925 C-1.25939261 4.21407228 -1.25939261 4.21407228 -3.68600464 0.71334839 C-6.59191176 0.51331842 -9.40044299 0.43360258 -12.30709839 0.44772339 C-13.16279922 0.44580994 -14.01850006 0.44389648 -14.90013123 0.44192505 C-16.71165256 0.44056281 -18.52318365 0.44426196 -20.33468628 0.4526062 C-23.10891674 0.4632922 -25.8824977 0.4527191 -28.65670776 0.43991089 C-30.41517274 0.44123273 -32.17363731 0.44379565 -33.93209839 0.44772339 C-34.76341782 0.44367493 -35.59473724 0.43962646 -36.45124817 0.43545532 C-40.37144795 0.46738056 -42.35136637 0.49025621 -45.68600464 2.71334839 Z " fill="#001E49" transform="translate(300.6860046386719,365.2866516113281)"/>
<path d="M0 0 C0.33 0 0.66 0 1 0 C1.03758423 1.76428345 1.03758423 1.76428345 1.07592773 3.56420898 C1.16982806 7.91214622 1.27009048 12.25991716 1.37231445 16.60766602 C1.41572933 18.49239218 1.45739943 20.37715936 1.49731445 22.26196289 C1.55485893 24.96513249 1.61859804 27.66809436 1.68359375 30.37109375 C1.70866249 31.64296791 1.70866249 31.64296791 1.73423767 32.9405365 C1.46409195 36.78292076 1.46409195 36.78292076 3 40 C6.02977804 40.08871273 9.03667022 40.1151935 12.06640625 40.09765625 C12.97502914 40.0962413 13.88365204 40.09482635 14.81980896 40.09336853 C17.73407221 40.08775193 20.64825981 40.07519665 23.5625 40.0625 C25.53320202 40.05748714 27.50390524 40.05292386 29.47460938 40.04882812 C34.31643559 40.03777711 39.15820495 40.02050138 44 40 C43.505 40.99 43.505 40.99 43 42 C31.45 42.66 19.9 43.32 8 44 C16.94444186 44.28846346 16.94444186 44.28846346 25.88916016 44.56811523 C27.01112793 44.60622314 28.1330957 44.64433105 29.2890625 44.68359375 C30.43068848 44.72025146 31.57231445 44.75690918 32.74853516 44.79467773 C35.8933928 44.99326801 38.9041491 45.4238847 42 46 C42 46.33 42 46.66 42 47 C40.82381104 47.02505615 39.64762207 47.0501123 38.43579102 47.07592773 C34.08785378 47.16982806 29.74008284 47.27009048 25.39233398 47.37231445 C23.50760782 47.41572933 21.62284064 47.45739943 19.73803711 47.49731445 C17.03486751 47.55485893 14.33190564 47.61859804 11.62890625 47.68359375 C10.78099014 47.70030624 9.93307404 47.71701874 9.0594635 47.73423767 C5.21707924 47.46409195 5.21707924 47.46409195 2 49 C1.91131701 51.95705321 1.88479704 54.89065056 1.90234375 57.84765625 C1.9037587 58.7340831 1.90517365 59.62050995 1.90663147 60.53379822 C1.91224785 63.37673254 1.92480309 66.21958931 1.9375 69.0625 C1.94251289 70.98502491 1.94707616 72.90755104 1.95117188 74.83007812 C1.96222259 79.55341549 1.97949817 84.27669458 2 89 C1.34 88.67 0.68 88.34 0 88 C0 74.14 0 60.28 0 46 C0.99 46 1.98 46 3 46 C2.23790232 42.90041465 2.23790232 42.90041465 -0.125 41.0625 C-0.74375 40.381875 -1.3625 39.70125 -2 39 C-1.70051428 37.65865844 -1.35615368 36.32741985 -1 35 C-0.84947591 32.31168621 -0.74394884 29.64337245 -0.68359375 26.953125 C-0.66281265 26.18192322 -0.64203156 25.41072144 -0.62062073 24.6161499 C-0.55541428 22.16085428 -0.49637516 19.70545479 -0.4375 17.25 C-0.39428726 15.58202065 -0.3506721 13.91405168 -0.30664062 12.24609375 C-0.19976264 8.16416804 -0.09841434 4.08213818 0 0 Z " fill="#01234F" transform="translate(203,319)"/>
<path d="M0 0 C1.77206192 0.00015919 3.54412846 0.00585754 5.31616211 0.01586914 C6.24698105 0.01728409 7.17779999 0.01869904 8.13682556 0.02015686 C11.12241777 0.02577367 14.10793615 0.03832899 17.09350586 0.05102539 C19.11238499 0.05603823 21.13126529 0.06060151 23.15014648 0.06469727 C28.11046158 0.07574856 33.07072118 0.09302444 38.03100586 0.11352539 C38.03100586 0.44352539 38.03100586 0.77352539 38.03100586 1.11352539 C24.83100586 1.44352539 11.63100586 1.77352539 -1.96899414 2.11352539 C-1.96899414 15.64352539 -1.96899414 29.17352539 -1.96899414 43.11352539 C17.83100586 43.60852539 17.83100586 43.60852539 38.03100586 44.11352539 C38.03100586 44.44352539 38.03100586 44.77352539 38.03100586 45.11352539 C32.22860972 45.16287195 26.42633505 45.19921941 20.6237793 45.22338867 C18.64882277 45.23346167 16.6738812 45.2471206 14.69897461 45.2644043 C11.86430168 45.28859578 9.02982548 45.2999953 6.19506836 45.30883789 C5.30856598 45.31916046 4.4220636 45.32948303 3.50869751 45.34011841 C1.34814634 45.34051609 -0.81193132 45.23625073 -2.96899414 45.11352539 C-4.96899414 43.11352539 -4.96899414 43.11352539 -5.2162323 41.28526306 C-5.21480728 40.546595 -5.21338226 39.80792694 -5.21191406 39.046875 C-5.21499069 38.20938217 -5.21806732 37.37188934 -5.22123718 36.50901794 C-5.21405167 35.60377884 -5.20686615 34.69853973 -5.19946289 33.76586914 C-5.19900467 32.83883682 -5.19854645 31.9118045 -5.19807434 30.9566803 C-5.19505068 28.99552125 -5.18716099 27.03436464 -5.17480469 25.07324219 C-5.15654786 22.05989137 -5.15429496 19.04684761 -5.15454102 16.03344727 C-5.14962599 14.13175188 -5.14379773 12.23005859 -5.13696289 10.32836914 C-5.13585007 9.4211058 -5.13473724 8.51384247 -5.1335907 7.5790863 C-5.07674698 0.14521052 -5.07674698 0.14521052 0 0 Z " fill="#01265A" transform="translate(155.968994140625,364.886474609375)"/>
<path d="M0 0 C0.495 1.98 0.495 1.98 1 4 C1.66 4 2.32 4 3 4 C2.67 18.85 2.34 33.7 2 49 C0.68 49.66 -0.64 50.32 -2 51 C-1.34 50.01 -0.68 49.02 0 48 C0.19615634 45.1218683 0.28001933 42.34283277 0.265625 39.46484375 C0.26753845 38.63038223 0.2694519 37.79592072 0.27142334 36.93617249 C0.2727836 35.17350971 0.26909823 33.41083686 0.26074219 31.64819336 C0.25002683 28.94427107 0.26064961 26.24101116 0.2734375 23.53710938 C0.27211614 21.82551936 0.26955424 20.11392976 0.265625 18.40234375 C0.26967346 17.59087387 0.27372192 16.77940399 0.27789307 15.94334412 C0.4232086 11.5007612 0.4232086 11.5007612 -2 8 C-6.22770763 7.05427836 -10.38986234 6.82234387 -14.7109375 6.68359375 C-15.95488281 6.64169922 -17.19882813 6.59980469 -18.48046875 6.55664062 C-19.76566406 6.51732422 -21.05085937 6.47800781 -22.375 6.4375 C-24.33759766 6.37272461 -24.33759766 6.37272461 -26.33984375 6.30664062 C-29.55979797 6.20087571 -32.77982531 6.09878421 -36 6 C-36.33 5.34 -36.66 4.68 -37 4 C-25.12 3.34 -13.24 2.68 -1 2 C-0.67 1.34 -0.34 0.68 0 0 Z " fill="#00122B" transform="translate(247,358)"/>
<path d="M0 0 C0.86140091 0.0028299 1.72280182 0.00565979 2.61030579 0.00857544 C5.36143894 0.01977013 8.1122465 0.04487329 10.86328125 0.0703125 C12.72851092 0.08034323 14.5937457 0.08946891 16.45898438 0.09765625 C21.03137545 0.11970712 25.60352314 0.15423201 30.17578125 0.1953125 C31.89380507 3.63136015 31.29544305 7.57970146 31.2734375 11.359375 C31.27202255 12.26658295 31.2706076 13.17379089 31.26914978 14.10848999 C31.26354221 17.01246405 31.25098843 19.91636165 31.23828125 22.8203125 C31.23326723 24.78645722 31.22870415 26.75260315 31.22460938 28.71875 C31.21357031 33.5443004 31.1963006 38.36979347 31.17578125 43.1953125 C30.84578125 43.1953125 30.51578125 43.1953125 30.17578125 43.1953125 C30.17578125 30.3253125 30.17578125 17.4553125 30.17578125 4.1953125 C26.24816615 2.88610747 22.45007494 2.96068382 18.3515625 2.87890625 C17.49016159 2.85812515 16.62876068 2.83734406 15.74125671 2.81593323 C12.99034581 2.75056341 10.23933969 2.69161118 7.48828125 2.6328125 C5.62303704 2.58961533 3.75780245 2.54600065 1.89257812 2.50195312 C-2.67958999 2.39489487 -7.25185385 2.29359196 -11.82421875 2.1953125 C-7.89117403 -0.42671731 -4.55796806 -0.05617277 0 0 Z " fill="#00173F" transform="translate(217.82421875,314.8046875)"/>
<path d="M0 0 C1.32 0.33 2.64 0.66 4 1 C4.76624982 5.75881465 5.12828766 10.32232161 5.1328125 15.140625 C5.13474609 17.11675781 5.13474609 17.11675781 5.13671875 19.1328125 C5.13462402 19.80860352 5.1325293 20.48439453 5.13037109 21.18066406 C5.12497784 23.25853654 5.13035694 25.33619632 5.13671875 27.4140625 C5.13542969 28.72632813 5.13414062 30.03859375 5.1328125 31.390625 C5.13168457 32.58719727 5.13055664 33.78376953 5.12939453 35.01660156 C5 38 5 38 4 41 C3.34 41 2.68 41 2 41 C1.97494385 39.82904785 1.9498877 38.6580957 1.92407227 37.45166016 C1.83006297 33.11674622 1.72982659 28.78199496 1.62768555 24.44726562 C1.58431211 22.56937458 1.54263882 20.69144348 1.50268555 18.81347656 C1.44504124 16.1177156 1.38133019 13.42215673 1.31640625 10.7265625 C1.29969376 9.88380768 1.28298126 9.04105286 1.26576233 8.17276001 C1.26763856 3.9513339 1.26763856 3.9513339 0 0 Z " fill="#02254E" transform="translate(194,366)"/>
<path d="M0 0 C0.99 0.33 1.98 0.66 3 1 C2.67 1.66 2.34 2.32 2 3 C1.84293669 5.84208026 1.7415043 8.66337307 1.68359375 11.5078125 C1.66281265 12.34843231 1.64203156 13.18905212 1.62062073 14.05514526 C1.55514561 16.74501235 1.4962498 19.43497843 1.4375 22.125 C1.39431284 23.94662489 1.35069848 25.76823971 1.30664062 27.58984375 C1.19946632 32.05979394 1.09819315 36.52984386 1 41 C-1.53760827 37.19358759 -1.34977475 34.03139645 -1.4140625 29.61328125 C-1.43342865 28.79627243 -1.4527948 27.97926361 -1.4727478 27.13749695 C-1.53250352 24.52927066 -1.57891258 21.92100014 -1.625 19.3125 C-1.6631835 17.5436006 -1.70223546 15.77471972 -1.7421875 14.00585938 C-1.83820168 9.67072341 -1.92224735 5.3355004 -2 1 C-1.34 0.67 -0.68 0.34 0 0 Z " fill="#001337" transform="translate(254,365)"/>
<path d="M0 0 C-1.70577342 0.65256456 -3.41476089 1.29673041 -5.125 1.9375 C-6.07632813 2.29714844 -7.02765625 2.65679687 -8.0078125 3.02734375 C-13.68783477 4.87372175 -19.30801001 5.18140361 -25.2421875 5.31640625 C-26.01055939 5.33718735 -26.77893127 5.35796844 -27.57058716 5.37937927 C-30.00530767 5.44433469 -32.44012847 5.50350638 -34.875 5.5625 C-36.5338642 5.6057367 -38.19271856 5.64935257 -39.8515625 5.69335938 C-43.90094104 5.79996003 -47.95041963 5.9013767 -52 6 C-51.67 5.34 -51.34 4.68 -51 4 C-40.77 4 -30.54 4 -20 4 C-20 3.34 -20 2.68 -20 2 C-16.37 2 -12.74 2 -9 2 C-9 1.34 -9 0.68 -9 0 C-3.375 -1.125 -3.375 -1.125 0 0 Z " fill="#17BEC3" transform="translate(319,195)"/>
<path d="M0 0 C19.6964487 -0.15038989 39.32018056 0.24770109 59 1 C59 1.33 59 1.66 59 2 C39.86 2 20.72 2 1 2 C1 2.66 1 3.32 1 4 C-0.32 4.33 -1.64 4.66 -3 5 C-2.67 4.01 -2.34 3.02 -2 2 C-1.34 2 -0.68 2 0 2 C0 1.34 0 0.68 0 0 Z " fill="#001D26" transform="translate(116,97)"/>
<path d="M0 0 C0.99 0.66 1.98 1.32 3 2 C1.25 5.875 1.25 5.875 -1 7 C-1.65213292 9.02463255 -1.65213292 9.02463255 -2 11 C-0.35 11.33 1.3 11.66 3 12 C0.58592302 13.60938465 -1.34044437 14.65490738 -4 15.6875 C-4.680625 15.95949219 -5.36125 16.23148437 -6.0625 16.51171875 C-8 17 -8 17 -11 16 C-9.6696875 14.5459375 -9.6696875 14.5459375 -8.3125 13.0625 C-4.85505071 9.05481531 -2.40573888 4.69438427 0 0 Z " fill="#0ECECF" transform="translate(316,391)"/>
<path d="M0 0 C8.37495014 0.38612648 16.00269231 1.45175967 24 4 C24 4.66 24 5.32 24 6 C24.66 6 25.32 6 26 6 C26.33 7.65 26.66 9.3 27 11 C26.53851563 10.67169189 26.07703125 10.34338379 25.6015625 10.00512695 C20.26859635 6.41841739 15.2247162 4.64567084 9 3.1875 C8.12988281 2.97158203 7.25976562 2.75566406 6.36328125 2.53320312 C4.24526728 2.00951835 2.12303633 1.50293703 0 1 C0 0.67 0 0.34 0 0 Z " fill="#002D3A" transform="translate(181,264)"/>
<path d="M0 0 C0 0.99 0 1.98 0 3 C-0.99 3.33 -1.98 3.66 -3 4 C-3.99 5.485 -3.99 5.485 -5 7 C-6.6635479 7.67441131 -8.33066942 8.3400321 -10 9 C-11.67423683 10.32381517 -13.34211215 11.65576661 -15 13 C-15.66 13 -16.32 13 -17 13 C-16.1875 11.0625 -16.1875 11.0625 -15 9 C-14.01 8.67 -13.02 8.34 -12 8 C-12 7.34 -12 6.68 -12 6 C-9.8828125 4.4921875 -9.8828125 4.4921875 -7.125 2.875 C-6.22007812 2.33617187 -5.31515625 1.79734375 -4.3828125 1.2421875 C-2 0 -2 0 0 0 Z " fill="#013442" transform="translate(257,205)"/>
<path d="M0 0 C0.99 0.33 1.98 0.66 3 1 C1.18690997 4.77727089 -0.9073259 8.37269822 -3 12 C-5.40072955 9.11912454 -7.47291037 6.43595166 -9 3 C-6.33333333 3 -3.66666667 3 -1 3 C-0.67 2.01 -0.34 1.02 0 0 Z " fill="#11CBCC" transform="translate(237,215)"/>
<path d="M0 0 C0.33 0 0.66 0 1 0 C1 1.65 1 3.3 1 5 C-2.33155251 6.66577625 -6.06536059 6.12007856 -9.7265625 6.09765625 C-11.02078629 6.09553383 -11.02078629 6.09553383 -12.34115601 6.09336853 C-15.1024723 6.08776188 -17.86370812 6.07520827 -20.625 6.0625 C-22.4947905 6.05748586 -24.36458226 6.0529228 -26.234375 6.04882812 C-30.82294777 6.03779029 -35.41146023 6.0205212 -40 6 C-40 5.67 -40 5.34 -40 5 C-27.79 5 -15.58 5 -3 5 C-3 4.34 -3 3.68 -3 3 C-2.01 3 -1.02 3 0 3 C0 2.01 0 1.02 0 0 Z " fill="#166AD1" transform="translate(246,354)"/>
<path d="M0 0 C-1.51980469 0.36351562 -1.51980469 0.36351562 -3.0703125 0.734375 C-4.42202833 1.07230396 -5.77358243 1.41088024 -7.125 1.75 C-8.12273437 1.98589844 -8.12273437 1.98589844 -9.140625 2.2265625 C-15.06997361 3.73796509 -19.85348443 6.39276047 -24 11 C-24 9.02 -24 7.04 -24 5 C-23.34 5 -22.68 5 -22 5 C-22 4.34 -22 3.68 -22 3 C-20.12577848 2.51779737 -18.25058246 2.03938167 -16.375 1.5625 C-15.33085937 1.29566406 -14.28671875 1.02882813 -13.2109375 0.75390625 C-4.04155928 -1.39900129 -4.04155928 -1.39900129 0 0 Z " fill="#002736" transform="translate(282,266)"/>
<path d="M0 0 C0.66 0 1.32 0 2 0 C1.56351219 5.14002021 0.13010425 7.57485647 -3.375 11.3125 C-4.16648438 12.17488281 -4.95796875 13.03726562 -5.7734375 13.92578125 C-8 16 -8 16 -11 17 C-10.67 15.68 -10.34 14.36 -10 13 C-9.01 13 -8.02 13 -7 13 C-6.67 11.68 -6.34 10.36 -6 9 C-4.68 8.67 -3.36 8.34 -2 8 C-2.226875 7.4225 -2.45375 6.845 -2.6875 6.25 C-3 4 -3 4 -1.6875 1.75 C-1.130625 1.1725 -0.57375 0.595 0 0 Z " fill="#12C5C6" transform="translate(207,290)"/>
<path d="M0 0 C1.45823212 -0.0270043 2.91660675 -0.04639787 4.375 -0.0625 C5.18710938 -0.07410156 5.99921875 -0.08570313 6.8359375 -0.09765625 C9 0 9 0 11 1 C13.0307477 1.15411106 15.06606421 1.24982453 17.1015625 1.31640625 C18.31328125 1.35830078 19.525 1.40019531 20.7734375 1.44335938 C22.04445312 1.48267578 23.31546875 1.52199219 24.625 1.5625 C25.90375 1.60568359 27.1825 1.64886719 28.5 1.69335938 C31.66655348 1.79969886 34.83318753 1.90172833 38 2 C38 2.33 38 2.66 38 3 C33.87406157 3.0498487 29.74824248 3.08592957 25.62207031 3.10986328 C24.22164858 3.11985248 22.82124732 3.13344854 21.42089844 3.15087891 C14.03093611 3.24048615 7.09230189 3.32144933 0 1 C0 0.67 0 0.34 0 0 Z " fill="#16BBBF" transform="translate(156,197)"/>
<path d="M0 0 C0 0.99 0 1.98 0 3 C-0.515625 3.12375 -1.03125 3.2475 -1.5625 3.375 C-4.72702351 4.18641628 -7.86124985 5.0945913 -11 6 C-11.33 5.34 -11.66 4.68 -12 4 C-14.02463255 3.34786708 -14.02463255 3.34786708 -16 3 C-13.89936424 2.30178583 -11.79434263 1.61675528 -9.6875 0.9375 C-8.51574219 0.55464844 -7.34398438 0.17179688 -6.13671875 -0.22265625 C-3 -1 -3 -1 0 0 Z " fill="#19232C" transform="translate(94,9)"/>
<path d="M0 0 C2.37802376 5.87940843 -1.75774081 12.54301009 -4 18 C-5.21997057 20.45936743 -6.51399623 22.68843858 -8 25 C-8.33 25 -8.66 25 -9 25 C-9 23.35 -9 21.7 -9 20 C-8.34 20 -7.68 20 -7 20 C-6.8865625 19.49855469 -6.773125 18.99710937 -6.65625 18.48046875 C-5.74707599 15.04400746 -4.62262762 11.68359037 -3.5 8.3125 C-3.27441406 7.62349609 -3.04882812 6.93449219 -2.81640625 6.22460938 C-1.11983385 1.11983385 -1.11983385 1.11983385 0 0 Z " fill="#19C5C7" transform="translate(398,312)"/>
<path d="M0 0 C1.125 3.75 1.125 3.75 0 6 C-0.66 6 -1.32 6 -2 6 C-2.15855469 6.61488281 -2.31710937 7.22976562 -2.48046875 7.86328125 C-4.3961029 14.49920728 -4.3961029 14.49920728 -7.5625 17.125 C-8.366875 17.41375 -9.17125 17.7025 -10 18 C-10.66 17.67 -11.32 17.34 -12 17 C-11.55269531 16.52691406 -11.10539062 16.05382812 -10.64453125 15.56640625 C-6.22545994 10.73275256 -2.93720153 5.84733207 0 0 Z " fill="#18BDBF" transform="translate(327,230)"/>
<path d="M0 0 C3.43063463 3.17918089 5.13496077 6.79159345 7.1875 10.9375 C7.55552734 11.65357422 7.92355469 12.36964844 8.30273438 13.10742188 C8.65013672 13.80287109 8.99753906 14.49832031 9.35546875 15.21484375 C9.67153076 15.84511475 9.98759277 16.47538574 10.31323242 17.12475586 C11 19 11 19 11 23 C10.34 23 9.68 23 9 23 C6.90649311 19.5980513 6.82057837 16.94727588 7 13 C6.34 13 5.68 13 5 13 C3.11304374 8.71146306 1.41807378 4.47238653 0 0 Z " fill="#14B9BD" transform="translate(386,167)"/>
<path d="M0 0 C-6.20479525 3.52441495 -12.23560442 6.7026581 -19 9 C-18.67 8.01 -18.34 7.02 -18 6 C-16.02 5.67 -14.04 5.34 -12 5 C-12 4.34 -12 3.68 -12 3 C-11.01 2.67 -10.02 2.34 -9 2 C-8.67 1.34 -8.34 0.68 -8 0 C-4.71585695 -0.95067299 -3.30306592 -1.10102197 0 0 Z " fill="#14C2C6" transform="translate(339,394)"/>
<path d="M0 0 C0 0.33 0 0.66 0 1 C-0.94101563 1.25394531 -1.88203125 1.50789063 -2.8515625 1.76953125 C-4.71941406 2.28580078 -4.71941406 2.28580078 -6.625 2.8125 C-8.46964844 3.31716797 -8.46964844 3.31716797 -10.3515625 3.83203125 C-13.79496554 4.93436263 -16.79027636 6.35748746 -20 8 C-20.66 8 -21.32 8 -22 8 C-22 7.01 -22 6.02 -22 5 C-14.75552756 2.15395725 -7.91763643 -0.39588182 0 0 Z " fill="#15C3C8" transform="translate(176,313)"/>
<path d="M0 0 C1.134375 0.40992188 2.26875 0.81984375 3.4375 1.2421875 C4.95826193 1.78665782 6.47909932 2.33091739 8 2.875 C8.74378906 3.14441406 9.48757812 3.41382813 10.25390625 3.69140625 C15.12295243 5.42732706 19.96625926 6.82164705 25 8 C25 8.33 25 8.66 25 9 C15.21194518 9.61175343 8.54843171 6.42686642 0 2 C0 1.34 0 0.68 0 0 Z " fill="#16C0C0" transform="translate(164,258)"/>
<path d="M0 0 C1.125 3.75 1.125 3.75 0 6 C-0.99 6.33 -1.98 6.66 -3 7 C-3.33 7.99 -3.66 8.98 -4 10 C-5.7421875 11.82421875 -5.7421875 11.82421875 -7.875 13.6875 C-8.57367188 14.31011719 -9.27234375 14.93273437 -9.9921875 15.57421875 C-12 17 -12 17 -15 17 C-14.50371094 16.52691406 -14.00742187 16.05382812 -13.49609375 15.56640625 C-8.50124679 10.70424973 -4.14738183 5.59896548 0 0 Z " fill="#002A36" transform="translate(373,362)"/>
<path d="M0 0 C0.33 0 0.66 0 1 0 C2.25 7.625 2.25 7.625 0 11 C-0.66158043 13.04584079 -0.66158043 13.04584079 -1.125 15.1875 C-1.41375 16.445625 -1.7025 17.70375 -2 19 C-2.66 18.67 -3.32 18.34 -4 18 C-3.52319861 15.56201552 -3.04365871 13.12462484 -2.5625 10.6875 C-2.42779297 9.99720703 -2.29308594 9.30691406 -2.15429688 8.59570312 C-1.57225668 5.65710993 -0.94847772 2.84543315 0 0 Z " fill="#012F3C" transform="translate(405,291)"/>
<path d="M0 0 C5.11365014 1.0681847 10.07227969 2.23107476 15 4 C12 6 12 6 10 6 C10 5.34 10 4.68 10 4 C8.68 4 7.36 4 6 4 C6 4.66 6 5.32 6 6 C2.52100842 4.60840337 1.51947499 3.36748512 0 0 Z " fill="#3C454D" transform="translate(411,9)"/>
<path d="M0 0 C0.66 0 1.32 0 2 0 C4.48496701 3.72745051 4.57158898 7.67580508 4 12 C2.5 15.5 2.5 15.5 1 18 C0.34 18 -0.32 18 -1 18 C-0.505 16.515 -0.505 16.515 0 15 C1.45015389 9.93988857 1.68287564 5.04862691 0 0 Z " fill="#002733" transform="translate(209,277)"/>
<path d="M0 0 C0.33 0 0.66 0 1 0 C0.61387352 8.37495014 -0.45175967 16.00269231 -3 24 C-4.30102931 19.67941758 -3.72449924 16.41944536 -3 12 C-2.67 11.67 -2.34 11.34 -2 11 C-1.60545777 9.15400312 -1.25823134 7.29774178 -0.9375 5.4375 C-0.76089844 4.42558594 -0.58429688 3.41367187 -0.40234375 2.37109375 C-0.20318359 1.19740234 -0.20318359 1.19740234 0 0 Z " fill="#1ABEBE" transform="translate(406,278)"/>
<path d="M0 0 C0.33 0 0.66 0 1 0 C1.4375 2.6875 1.4375 2.6875 1 6 C-1.11124923 8.04775301 -3.45859507 9.53480226 -6 11 C-6.66 10.67 -7.32 10.34 -8 10 C-6.69118353 8.33043913 -5.37785174 6.66441696 -4.0625 5 C-2.96615234 3.6078125 -2.96615234 3.6078125 -1.84765625 2.1875 C-1.23792969 1.465625 -0.62820312 0.74375 0 0 Z " fill="#012B3A" transform="translate(134,336)"/>
<path d="M0 0 C1.32 0.66 2.64 1.32 4 2 C3.02501855 3.5027237 2.04490611 5.00211963 1.0625 6.5 C0.24458984 7.75296875 0.24458984 7.75296875 -0.58984375 9.03125 C-1.05519531 9.6809375 -1.52054687 10.330625 -2 11 C-2.33 11 -2.66 11 -3 11 C-3 9.02 -3 7.04 -3 5 C-2.34 5 -1.68 5 -1 5 C-1.33 4.01 -1.66 3.02 -2 2 C-1.34 2 -0.68 2 0 2 C0 1.34 0 0.68 0 0 Z " fill="#0FC6C6" transform="translate(380,346)"/>
<path d="M0 0 C0.66 0.99 1.32 1.98 2 3 C-2.75 4 -2.75 4 -5 4 C-5.66 4.66 -6.32 5.32 -7 6 C-7 4.02 -7 2.04 -7 0 C-4.27584084 -1.36207958 -2.87220643 -0.86166193 0 0 Z " fill="#002A36" transform="translate(140,188)"/>
<path d="M0 0 C0.99 0.33 1.98 0.66 3 1 C0 4 -3 7 -6 10 C-6.36458333 5.50347222 -6.36458333 5.50347222 -4.6875 3.1875 C-3 2 -3 2 0 2 C0 1.34 0 0.68 0 0 Z " fill="#0EC4C7" transform="translate(137,330)"/>
<path d="M0 0 C1.25955231 3.77865693 0.48087189 5.03411786 -0.9375 8.6875 C-1.31777344 9.68136719 -1.69804688 10.67523438 -2.08984375 11.69921875 C-2.39019531 12.45847656 -2.69054687 13.21773438 -3 14 C-3.66 14 -4.32 14 -5 14 C-4.46515599 8.65155992 -2.53309233 4.64203897 0 0 Z " fill="#00323F" transform="translate(122,353)"/>
<path d="M0 0 C0.33 0 0.66 0 1 0 C1 1.98 1 3.96 1 6 C0.34 6 -0.32 6 -1 6 C-1.33 8.97 -1.66 11.94 -2 15 C-2.66 15 -3.32 15 -4 15 C-4 15.66 -4 16.32 -4 17 C-4.66 17 -5.32 17 -6 17 C-4.13236819 11.27789404 -2.14710968 5.62338249 0 0 Z " fill="#003844" transform="translate(397,318)"/>
<path d="M0 0 C1.66926454 0.97473126 3.33535642 1.95489789 5 2.9375 C6.3921875 3.75541016 6.3921875 3.75541016 7.8125 4.58984375 C8.534375 5.05519531 9.25625 5.52054687 10 6 C10 6.33 10 6.66 10 7 C7.3125 7.3125 7.3125 7.3125 4 7 C1.125 4.5 1.125 4.5 -1 2 C-0.67 1.34 -0.34 0.68 0 0 Z " fill="#012332" transform="translate(266,304)"/>
<path d="M0 0 C0.33 0 0.66 0 1 0 C1.20086443 3.71599191 1.1519437 4.77208445 -1 8 C-1.66 8 -2.32 8 -3 8 C-3.33 9.98 -3.66 11.96 -4 14 C-4.66 13.67 -5.32 13.34 -6 13 C-4.58707905 8.1725201 -2.57025846 4.2837641 0 0 Z " fill="#013643" transform="translate(390,335)"/>
<path d="M0 0 C3.33927918 3.33927918 4.14606392 4.49175423 4.1875 9 C4.20167969 9.70125 4.21585938 10.4025 4.23046875 11.125 C4 13 4 13 2 15 C1.34 10.05 0.68 5.1 0 0 Z " fill="#18AEB3" transform="translate(207,275)"/>
<path d="M0 0 C3.5218253 1.95656961 6.34442785 3.95100975 9 7 C9 7.66 9 8.32 9 9 C5.16713064 8.45244723 3.59901736 6.7666959 1 4 C0.01 3.34 -0.98 2.68 -2 2 C-1.34 2 -0.68 2 0 2 C0 1.34 0 0.68 0 0 Z " fill="#012D3A" transform="translate(219,210)"/>
<path d="M0 0 C4.84419638 2.07909954 9.55639631 4.13315891 14 7 C13.01 7.495 13.01 7.495 12 8 C7.75476105 6.39802304 3.73748858 4.60491628 0 2 C0 1.34 0 0.68 0 0 Z " fill="#18C6C7" transform="translate(325,112)"/>
<path d="M0 0 C3.7952131 1.49097658 5.61042731 3.75700849 8 7 C7.67 7.66 7.34 8.32 7 9 C2.125 7.25 2.125 7.25 1 5 C1.33 4.34 1.66 3.68 2 3 C1.34 3 0.68 3 0 3 C0 2.01 0 1.02 0 0 Z " fill="#50585E" transform="translate(463,39)"/>
<path d="M0 0 C0.33 0.99 0.66 1.98 1 3 C0.01 4.485 0.01 4.485 -1 6 C-0.01 6.66 0.98 7.32 2 8 C-0.97 8.66 -3.94 9.32 -7 10 C-6.57847656 9.44570313 -6.15695312 8.89140625 -5.72265625 8.3203125 C-5.17480469 7.59585937 -4.62695312 6.87140625 -4.0625 6.125 C-3.51722656 5.40570313 -2.97195313 4.68640625 -2.41015625 3.9453125 C-0.96035376 2.05642921 -0.96035376 2.05642921 0 0 Z " fill="#21B1B3" transform="translate(312,398)"/>
<path d="M0 0 C0 0.99 0 1.98 0 3 C-0.99 3.33 -1.98 3.66 -3 4 C-3.99 5.485 -3.99 5.485 -5 7 C-5.99 7 -6.98 7 -8 7 C-6.53112033 2.34854772 -6.53112033 2.34854772 -4 0.6875 C-2 0 -2 0 0 0 Z " fill="#00242F" transform="translate(257,205)"/>
<path d="M0 0 C4.3177458 0.50797009 8.03302114 1.19682779 12 3 C12 3.99 12 4.98 12 6 C7.76570244 4.68938409 3.92592596 3.05643741 0 1 C0 0.67 0 0.34 0 0 Z " fill="#003543" transform="translate(326,112)"/>
<path d="M0 0 C0.66 0.33 1.32 0.66 2 1 C-0.31 3.64 -2.62 6.28 -5 9 C-5.66 8.34 -6.32 7.68 -7 7 C-6.34 6.34 -5.68 5.68 -5 5 C-3.98758315 3.67607028 -2.98560611 2.34400833 -2 1 C-1.34 1.33 -0.68 1.66 0 2 C0 1.34 0 0.68 0 0 Z " fill="#001E29" transform="translate(319,240)"/>
<path d="M0 0 C-0.33 0.99 -0.66 1.98 -1 3 C-1.99 3 -2.98 3 -4 3 C-4.33 3.99 -4.66 4.98 -5 6 C-6.65 6 -8.3 6 -10 6 C-7.35570758 3.077361 -4.105808 0 0 0 Z " fill="#012936" transform="translate(158,320)"/>
<path d="M0 0 C3.3 0.99 6.6 1.98 10 3 C10 3.33 10 3.66 10 4 C8.88625 3.979375 7.7725 3.95875 6.625 3.9375 C3.16784079 3.73619282 3.16784079 3.73619282 1 5 C0.67 3.35 0.34 1.7 0 0 Z " fill="#002936" transform="translate(148,195)"/>
<path d="M0 0 C0.66 0 1.32 0 2 0 C0.6062718 4.43458973 -1.60582235 6.87378374 -5 10 C-4.625 7.5625 -4.625 7.5625 -4 5 C-3.34 4.67 -2.68 4.34 -2 4 C-0.86649466 1.98330173 -0.86649466 1.98330173 0 0 Z " fill="#002D39" transform="translate(312,395)"/>
<path d="M0 0 C0.66 0 1.32 0 2 0 C1.8125 2.375 1.8125 2.375 1 5 C-1.5625 6.3125 -1.5625 6.3125 -4 7 C-2.92598892 4.08482708 -2.22189824 2.22189824 0 0 Z " fill="#0CCDCC" transform="translate(324,186)"/>
<path d="M0 0 C5.57142857 5.14285714 5.57142857 5.14285714 6 9 C4.125 8.4375 4.125 8.4375 2 7 C0.75 3.375 0.75 3.375 0 0 Z " fill="#13B1B6" transform="translate(379,156)"/>
<path d="M0 0 C0 0.66 0 1.32 0 2 C-0.99 2 -1.98 2 -3 2 C-2.67 2.99 -2.34 3.98 -2 5 C-4.6666419 6.33332095 -6.16680303 5.67102033 -9 5 C-2.87096774 0 -2.87096774 0 0 0 Z " fill="#0FB6BE" transform="translate(306,256)"/>
<path d="M0 0 C0 2.62113708 -0.31292445 4.50935112 -1 7 C-3.31 7.33 -5.62 7.66 -8 8 C-5.33333333 5.33333333 -2.66666667 2.66666667 0 0 Z " fill="#11B8BB" transform="translate(314,248)"/>
<path d="M0 0 C0.33 0.66 0.66 1.32 1 2 C1.66 2.33 2.32 2.66 3 3 C0.60490662 5.89932357 -1.31245243 6.50168276 -5 7 C-3.35 4.69 -1.7 2.38 0 0 Z " fill="#10B7B9" transform="translate(320,241)"/>
<path d="M0 0 C0.99 0.33 1.98 0.66 3 1 C1.62845496 3.95409701 0.01136276 6.44008376 -2 9 C-2.20140476 5.37471432 -1.85776765 3.13498292 0 0 Z " fill="#11BDC4" transform="translate(237,215)"/>
<path d="M0 0 C0.33 0.99 0.66 1.98 1 3 C-0.125 4.5 -0.125 4.5 -2 6 C-5.1875 6.1875 -5.1875 6.1875 -8 6 C-5.84145761 3.84145761 -3.61978408 2.54500087 -1 1 C-0.67 0.67 -0.34 0.34 0 0 Z " fill="#001B22" transform="translate(363,376)"/>
<path d="M0 0 C0.99 0.33 1.98 0.66 3 1 C1.35 2.98 -0.3 4.96 -2 7 C-2.33 5.68 -2.66 4.36 -3 3 C-2.34 3 -1.68 3 -1 3 C-0.67 2.01 -0.34 1.02 0 0 Z " fill="#13BFC3" transform="translate(365,368)"/>
<path d="M0 0 C2.31 0 4.62 0 7 0 C7.33 1.65 7.66 3.3 8 5 C5.36 3.68 2.72 2.36 0 1 C0 0.67 0 0.34 0 0 Z " fill="#11BEBE" transform="translate(287,315)"/>
<path d="M0 0 C0.99 0.33 1.98 0.66 3 1 C1.515 4.465 1.515 4.465 0 8 C-0.33 8 -0.66 8 -1 8 C-1.625 5.125 -1.625 5.125 -2 2 C-1.34 1.34 -0.68 0.68 0 0 Z " fill="#012335" transform="translate(326,226)"/>
<path d="M0 0 C0 0.99 0 1.98 0 3 C-0.66 3 -1.32 3 -2 3 C-2 2.34 -2 1.68 -2 1 C-3.98 1.66 -5.96 2.32 -8 3 C-8.66 2.34 -9.32 1.68 -10 1 C-3.375 -1.125 -3.375 -1.125 0 0 Z " fill="#4D545C" transform="translate(94,9)"/>
<path d="M0 0 C0.66 0.33 1.32 0.66 2 1 C0.9375 2.5 0.9375 2.5 -1 4 C-4.6875 4.1875 -4.6875 4.1875 -8 4 C-5.31143836 2.20762558 -3.0466145 1.01553817 0 0 Z " fill="#013B47" transform="translate(324,401)"/>
<path d="M0 0 C0.99 0.66 1.98 1.32 3 2 C2.25 3.9375 2.25 3.9375 1 6 C-1.125 6.75 -1.125 6.75 -3 7 C-2.01 4.69 -1.02 2.38 0 0 Z " fill="#0EBBBE" transform="translate(316,391)"/>
<path d="M0 0 C0.66 0.33 1.32 0.66 2 1 C1.34 3.31 0.68 5.62 0 8 C-0.66 8 -1.32 8 -2 8 C-1.125 2.25 -1.125 2.25 0 0 Z " fill="#002C39" transform="translate(330,216)"/>
<path d="M0 0 C0.33 0.99 0.66 1.98 1 3 C-0.32 4.32 -1.64 5.64 -3 7 C-3.99 6.67 -4.98 6.34 -6 6 C-4.02 4.02 -2.04 2.04 0 0 Z " fill="#61666F" transform="translate(43,32)"/>
<path d="M0 0 C0.66 0 1.32 0 2 0 C2 0.66 2 1.32 2 2 C2.928125 2.2165625 2.928125 2.2165625 3.875 2.4375 C6 3 6 3 8 4 C7.67 4.66 7.34 5.32 7 6 C4.0625 5.25 4.0625 5.25 1 4 C0.125 1.875 0.125 1.875 0 0 Z " fill="#596066" transform="translate(442,22)"/>
<path d="M0 0 C0.66 0 1.32 0 2 0 C0.8141763 3.37503669 -0.27573689 5.64722731 -3 8 C-3 6.35 -3 4.7 -3 3 C-2.01 2.67 -1.02 2.34 0 2 C0 1.34 0 0.68 0 0 Z " fill="#12C3C5" transform="translate(126,343)"/>
<path d="M0 0 C0.66 0 1.32 0 2 0 C0.7508258 3.45925163 -0.67527795 6.14693203 -3 9 C-3 7.35 -3 5.7 -3 4 C-2.34 4 -1.68 4 -1 4 C-0.67 2.68 -0.34 1.36 0 0 Z " fill="#15B9BF" transform="translate(392,328)"/>
<path d="M0 0 C-0.66 0 -1.32 0 -2 0 C-2 0.66 -2 1.32 -2 2 C-4.64 2.33 -7.28 2.66 -10 3 C-4.375 -1.3125 -4.375 -1.3125 0 0 Z " fill="#16B4B6" transform="translate(273,269)"/>
<path d="M0 0 C0 2 0 2 -1.5 3.625 C-1.995 4.07875 -2.49 4.5325 -3 5 C-4.32 4.34 -5.64 3.68 -7 3 C-2.25 0 -2.25 0 0 0 Z " fill="#656B72" transform="translate(67,17)"/>
<path d="M0 0 C1.4370809 -0.05422947 2.87475462 -0.09289723 4.3125 -0.125 C5.11300781 -0.14820313 5.91351563 -0.17140625 6.73828125 -0.1953125 C9 0 9 0 12 2 C11.01 2 10.02 2 9 2 C8.67 2.66 8.34 3.32 8 4 C7.67 3.01 7.34 2.02 7 1 C4.69 1 2.38 1 0 1 C0 0.67 0 0.34 0 0 Z " fill="#4F555C" transform="translate(397,7)"/>
</svg>
